<?xml version="1.0" encoding="UTF-8" standalone="no" ?>
<!DOCTYPE svg PUBLIC "-//W3C//DTD SVG 1.1//EN" "http://www.w3.org/Graphics/SVG/1.1/DTD/svg11.dtd">
<svg xmlns="http://www.w3.org/2000/svg" xmlns:xlink="http://www.w3.org/1999/xlink" version="1.1" width="1080" height="1080" viewBox="0 0 1080 1080" xml:space="preserve">
<desc>Created with Fabric.js 5.2.4</desc>
    <defs>
</defs>
    <rect x="0" y="0" width="100%" height="100%" fill="transparent"></rect>
    <g transform="matrix(1 0 0 1 540 540)" id="d1ee9f95-688d-41c4-8a7b-0fe6aeddee7b"  >
<rect style="stroke: none; stroke-width: 1; stroke-dasharray: none; stroke-linecap: butt; stroke-dashoffset: 0; stroke-linejoin: miter; stroke-miterlimit: 4; fill: rgb(255,255,255); fill-rule: nonzero; opacity: 1; visibility: hidden;" vector-effect="non-scaling-stroke"  x="-540" y="-540" rx="0" ry="0" width="1080" height="1080" />
</g>
    <g transform="matrix(1 0 0 1 540 540)" id="bcb9a4f9-472a-486f-89a7-11b280853dab"  >
</g>
    <g transform="matrix(3.15 0 0 6.85 541.72 539.26)"  >
<g style="" vector-effect="non-scaling-stroke"   >
		<g transform="matrix(1 0 0 1 -158.07 68.04)"  >
<path style="stroke: none; stroke-width: 1; stroke-dasharray: none; stroke-linecap: butt; stroke-dashoffset: 0; stroke-linejoin: miter; stroke-miterlimit: 10; fill: rgb(16,24,32); fill-rule: nonzero; opacity: 1;" vector-effect="non-scaling-stroke"  transform=" translate(-116.93, -303.04)" d="M 121.66913 306.45478 C 121.66913 305.09712 121.10517999999999 303.88567 120.12348999999999 303.15462 C 119.49687999999999 302.6951 118.84938 302.40269 117.26195999999999 301.92228 C 115.86252999999999 301.50454 115.38211999999999 301.31655 114.98526999999999 300.96147 C 114.54663999999998 300.5855 114.25421999999999 299.87534 114.25421999999999 299.16518 C 114.25421999999999 297.61954000000003 115.38211999999999 296.47075 116.92777 296.47075 C 118.4943 296.47075 119.68486 297.55688000000004 119.68486 299.22784 L 121.29316 299.22784 C 121.29316 296.72139000000004 119.49687 295.05043 116.96954 295.05043 C 114.48397999999999 295.05043 112.68768999999999 296.80494 112.68768999999999 299.20696 C 112.68768999999999 300.2722 113.08453999999999 301.29567 113.77381999999999 301.94317 C 114.37954999999998 302.52801 114.85994999999998 302.75777 116.65623999999998 303.30083 C 119.30889999999998 304.11543 120.10260999999998 304.84647 120.10260999999998 306.53833000000003 C 120.10260999999998 308.31373 118.80760999999998 309.60873000000004 117.05309999999999 309.60873000000004 C 115.31946999999998 309.60873000000004 114.06624999999998 308.50172000000003 113.83648999999998 306.43389 L 112.18640999999998 306.43389 C 112.33261999999998 309.21187000000003 114.23333999999998 311.02905000000004 117.01131999999998 311.02905000000004 C 119.68486999999999 311.02905000000004 121.66913999999998 309.08655000000005 121.66913999999998 306.45478 z" stroke-linecap="round" />
</g>
    <g transform="matrix(1 0 0 1 -145.64 74.44)"  >
<path style="stroke: none; stroke-width: 1; stroke-dasharray: none; stroke-linecap: butt; stroke-dashoffset: 0; stroke-linejoin: miter; stroke-miterlimit: 10; fill: rgb(16,24,32); fill-rule: nonzero; opacity: 1;" vector-effect="non-scaling-stroke"  transform=" translate(-129.36, -309.44)" d="M 130.13535 310.75751 L 130.13535 308.12574 L 128.58971 308.12574 L 128.58971 310.75751 z" stroke-linecap="round" />
</g>
    <g transform="matrix(1 0 0 1 -123.12 68.04)"  >
<path style="stroke: none; stroke-width: 1; stroke-dasharray: none; stroke-linecap: butt; stroke-dashoffset: 0; stroke-linejoin: miter; stroke-miterlimit: 10; fill: rgb(16,24,32); fill-rule: nonzero; opacity: 1;" vector-effect="non-scaling-stroke"  transform=" translate(-151.88, -303.04)" d="M 156.65497 310.75751 L 156.65497 309.35808000000003 L 148.86409 309.35808000000003 L 156.42521 296.7214 L 156.42521 295.32197 L 147.33933 295.32197 L 147.33933 296.7214 L 154.69158 296.7214 L 147.10957 309.35808000000003 L 147.10957 310.75751 z" stroke-linecap="round" />
</g>
    <g transform="matrix(1 0 0 1 -111.51 68.04)"  >
<path style="stroke: none; stroke-width: 1; stroke-dasharray: none; stroke-linecap: butt; stroke-dashoffset: 0; stroke-linejoin: miter; stroke-miterlimit: 10; fill: rgb(16,24,32); fill-rule: nonzero; opacity: 1;" vector-effect="non-scaling-stroke"  transform=" translate(-163.49, -303.04)" d="M 164.26483 310.75751 L 164.26483 295.32196000000005 L 162.71919 295.32196000000005 L 162.71919 310.75751 z" stroke-linecap="round" />
</g>
    <g transform="matrix(1 0 0 1 -98.1 68.04)"  >
<path style="stroke: none; stroke-width: 1; stroke-dasharray: none; stroke-linecap: butt; stroke-dashoffset: 0; stroke-linejoin: miter; stroke-miterlimit: 10; fill: rgb(16,24,32); fill-rule: nonzero; opacity: 1;" vector-effect="non-scaling-stroke"  transform=" translate(-176.9, -303.04)" d="M 182.00492 300.00067 C 182.00492 296.76317 180.29218 295.32197 176.0521 295.32197 L 171.79113999999998 295.32197 L 171.79113999999998 310.75752 L 173.33677999999998 310.75752 L 173.33677999999998 304.51229 L 176.30273999999997 304.51229 C 180.50103999999996 304.51229 182.00490999999997 302.92487 182.00490999999997 300.00068 z M 180.43839 300.00067 C 180.43839 302.23559 179.26871 303.11284 176.19831 303.11284 L 173.33678 303.11284 L 173.33678 296.7214 L 175.52992 296.7214 C 178.475 296.7214 180.43838 296.86761 180.43838 300.00067 z" stroke-linecap="round" />
</g>
    <g transform="matrix(1 0 0 1 -81.39 68.04)"  >
<path style="stroke: none; stroke-width: 1; stroke-dasharray: none; stroke-linecap: butt; stroke-dashoffset: 0; stroke-linejoin: miter; stroke-miterlimit: 10; fill: rgb(16,24,32); fill-rule: nonzero; opacity: 1;" vector-effect="non-scaling-stroke"  transform=" translate(-193.61, -303.04)" d="M 198.72154 300.00067 C 198.72154 296.76317 197.0088 295.32197 192.76872 295.32197 L 188.50776 295.32197 L 188.50776 310.75752 L 190.05339999999998 310.75752 L 190.05339999999998 304.51229 L 193.01935999999998 304.51229 C 197.21765999999997 304.51229 198.72152999999997 302.92487 198.72152999999997 300.00068 z M 197.15501 300.00067 C 197.15501 302.23559 195.98533 303.11284 192.91493 303.11284 L 190.0534 303.11284 L 190.0534 296.7214 L 192.24654 296.7214 C 195.19162 296.7214 197.155 296.86761 197.155 300.00067 z" stroke-linecap="round" />
</g>
    <g transform="matrix(1 0 0 1 -65.56 68.04)"  >
<path style="stroke: none; stroke-width: 1; stroke-dasharray: none; stroke-linecap: butt; stroke-dashoffset: 0; stroke-linejoin: miter; stroke-miterlimit: 10; fill: rgb(16,24,32); fill-rule: nonzero; opacity: 1;" vector-effect="non-scaling-stroke"  transform=" translate(-209.44, -303.04)" d="M 213.66276 310.75751 L 213.66276 309.35808000000003 L 206.77003 309.35808000000003 L 206.77003 303.65591 L 213.43301 303.65591 L 213.43301 302.25648 L 206.77003 302.25648 L 206.77003 296.72141 L 213.66276 296.72141 L 213.66276 295.32198 L 205.22438 295.32198 L 205.22438 310.75753 z" stroke-linecap="round" />
</g>
    <g transform="matrix(1 0 0 1 -49 68.04)"  >
<path style="stroke: none; stroke-width: 1; stroke-dasharray: none; stroke-linecap: butt; stroke-dashoffset: 0; stroke-linejoin: miter; stroke-miterlimit: 10; fill: rgb(16,24,32); fill-rule: nonzero; opacity: 1;" vector-effect="non-scaling-stroke"  transform=" translate(-226, -303.04)" d="M 231.23575 300.29309 C 231.23575 297.07648 229.43946 295.32197 224.59366 295.32197 L 220.77133 295.32197 L 220.77133 310.75752 L 222.31697 310.75752 L 222.31697 296.72141 L 224.48923 296.72141 C 228.08181 296.72141 229.66922 297.66132999999996 229.66922 300.23044 C 229.66922 303.00842 228.20712 303.76036 223.8835 303.76036 L 229.08438 310.75753 L 231.00599 310.75753 L 226.68237 304.99269999999996 C 229.64833 304.67938999999996 231.23575 303.02932 231.23575 300.29310999999996 z" stroke-linecap="round" />
</g>
    <g transform="matrix(1 0 0 1 -20.92 68.04)"  >
<path style="stroke: none; stroke-width: 1; stroke-dasharray: none; stroke-linecap: butt; stroke-dashoffset: 0; stroke-linejoin: miter; stroke-miterlimit: 10; fill: rgb(16,24,32); fill-rule: nonzero; opacity: 1;" vector-effect="non-scaling-stroke"  transform=" translate(-254.08, -303.04)" d="M 261.5777 310.75751 L 254.93561 295.32196000000005 L 253.20198 295.32196000000005 L 246.58078 310.75751 L 248.20997 310.75751 L 250.46577 305.55663000000004 L 257.65092 305.55663000000004 L 259.88584 310.75751 z M 257.04521 304.1572 L 251.05062 304.1572 L 254.07925 297.07648 z" stroke-linecap="round" />
</g>
    <g transform="matrix(1 0 0 1 -1.07 68.04)"  >
<path style="stroke: none; stroke-width: 1; stroke-dasharray: none; stroke-linecap: butt; stroke-dashoffset: 0; stroke-linejoin: miter; stroke-miterlimit: 10; fill: rgb(16,24,32); fill-rule: nonzero; opacity: 1;" vector-effect="non-scaling-stroke"  transform=" translate(-273.93, -303.04)" d="M 281.51093 306.70542 L 279.79819 306.70542 C 278.169 308.75235 276.68602 309.60872 274.43021 309.60872 C 270.85852 309.60872 267.91344 306.64276 267.91344 303.02929 C 267.91344 299.31139 270.73319 296.47075 274.40932 296.47075 C 276.58158 296.47075 278.39875 297.26446 279.71464 299.33228 L 281.44827 299.33228 C 280.25771 296.67962 277.54238999999995 295.05043 274.34666999999996 295.05043 C 269.75150999999994 295.05043 266.34691999999995 298.47591 266.34691999999995 303.09195 C 266.34691999999995 307.60356 269.83505999999994 311.02904 274.45109999999994 311.02904 C 277.58415999999994 311.02904 279.9652899999999 309.56694 281.5109299999999 306.70542 z" stroke-linecap="round" />
</g>
    <g transform="matrix(1 0 0 1 20.26 68.04)"  >
<path style="stroke: none; stroke-width: 1; stroke-dasharray: none; stroke-linecap: butt; stroke-dashoffset: 0; stroke-linejoin: miter; stroke-miterlimit: 10; fill: rgb(16,24,32); fill-rule: nonzero; opacity: 1;" vector-effect="non-scaling-stroke"  transform=" translate(-295.26, -303.04)" d="M 302.8436 306.70542 L 301.13086 306.70542 C 299.50167 308.75235 298.01869 309.60872 295.76288 309.60872 C 292.19119 309.60872 289.24611 306.64276 289.24611 303.02929 C 289.24611 299.31139 292.06586 296.47075 295.74199 296.47075 C 297.91425 296.47075 299.73142 297.26446 301.04731 299.33228 L 302.78094 299.33228 C 301.59038 296.67962 298.87505999999996 295.05043 295.67933999999997 295.05043 C 291.08417999999995 295.05043 287.67958999999996 298.47591 287.67958999999996 303.09195 C 287.67958999999996 307.60356 291.16772999999995 311.02904 295.78376999999995 311.02904 C 298.91682999999995 311.02904 301.29795999999993 309.56694 302.8435999999999 306.70542 z" stroke-linecap="round" />
</g>
    <g transform="matrix(1 0 0 1 38.9 68.04)"  >
<path style="stroke: none; stroke-width: 1; stroke-dasharray: none; stroke-linecap: butt; stroke-dashoffset: 0; stroke-linejoin: miter; stroke-miterlimit: 10; fill: rgb(16,24,32); fill-rule: nonzero; opacity: 1;" vector-effect="non-scaling-stroke"  transform=" translate(-313.9, -303.04)" d="M 318.11901 310.75751 L 318.11901 309.35808000000003 L 311.22628 309.35808000000003 L 311.22628 303.65591 L 317.88926 303.65591 L 317.88926 302.25648 L 311.22628 302.25648 L 311.22628 296.72141 L 318.11901 296.72141 L 318.11901 295.32198 L 309.68063 295.32198 L 309.68063 310.75753 z" stroke-linecap="round" />
</g>
    <g transform="matrix(1 0 0 1 53.84 68.04)"  >
<path style="stroke: none; stroke-width: 1; stroke-dasharray: none; stroke-linecap: butt; stroke-dashoffset: 0; stroke-linejoin: miter; stroke-miterlimit: 10; fill: rgb(16,24,32); fill-rule: nonzero; opacity: 1;" vector-effect="non-scaling-stroke"  transform=" translate(-328.84, -303.04)" d="M 333.58241 306.45478 C 333.58241 305.09712 333.01846 303.88567 332.03677 303.15462 C 331.41015999999996 302.6951 330.76266 302.40269 329.17524 301.92228 C 327.77581 301.50454 327.2954 301.31655 326.89855 300.96147 C 326.45992 300.5855 326.1675 299.87534 326.1675 299.16518 C 326.1675 297.61954000000003 327.29540000000003 296.47075 328.84105 296.47075 C 330.40758 296.47075 331.59814 297.55688000000004 331.59814 299.22784 L 333.20644 299.22784 C 333.20644 296.72139000000004 331.41015 295.05043 328.88282 295.05043 C 326.39725999999996 295.05043 324.60096999999996 296.80494 324.60096999999996 299.20696 C 324.60096999999996 300.2722 324.99781999999993 301.29567 325.6871 301.94317 C 326.29283 302.52801 326.77323 302.75777 328.56952 303.30083 C 331.22218000000004 304.11543 332.01589 304.84647 332.01589 306.53833000000003 C 332.01589 308.31373 330.72089 309.60873000000004 328.96638 309.60873000000004 C 327.23275 309.60873000000004 325.97953 308.50172000000003 325.74977 306.43389 L 324.09969 306.43389 C 324.2459 309.21187000000003 326.14662 311.02905000000004 328.9246 311.02905000000004 C 331.59815 311.02905000000004 333.58242 309.08655000000005 333.58242 306.45478 z" stroke-linecap="round" />
</g>
    <g transform="matrix(1 0 0 1 68.59 68.04)"  >
<path style="stroke: none; stroke-width: 1; stroke-dasharray: none; stroke-linecap: butt; stroke-dashoffset: 0; stroke-linejoin: miter; stroke-miterlimit: 10; fill: rgb(16,24,32); fill-rule: nonzero; opacity: 1;" vector-effect="non-scaling-stroke"  transform=" translate(-343.59, -303.04)" d="M 348.33564 306.45478 C 348.33564 305.09712 347.77169000000004 303.88567 346.79 303.15462 C 346.16339 302.6951 345.51589 302.40269 343.92847 301.92228 C 342.52904 301.50454 342.04863 301.31655 341.65178000000003 300.96147 C 341.21315000000004 300.5855 340.92073000000005 299.87534 340.92073000000005 299.16518 C 340.92073000000005 297.61954000000003 342.04863000000006 296.47075 343.59428 296.47075 C 345.16081 296.47075 346.35137000000003 297.55688000000004 346.35137000000003 299.22784 L 347.95967 299.22784 C 347.95967 296.72139000000004 346.16338 295.05043 343.63605 295.05043 C 341.15049 295.05043 339.3542 296.80494 339.3542 299.20696 C 339.3542 300.2722 339.75104999999996 301.29567 340.44033 301.94317 C 341.04606 302.52801 341.52646000000004 302.75777 343.32275000000004 303.30083 C 345.97541000000007 304.11543 346.76912000000004 304.84647 346.76912000000004 306.53833000000003 C 346.76912000000004 308.31373 345.47412 309.60873000000004 343.71961000000005 309.60873000000004 C 341.98598000000004 309.60873000000004 340.73276000000004 308.50172000000003 340.50300000000004 306.43389 L 338.85292000000004 306.43389 C 338.99913000000004 309.21187000000003 340.89985 311.02905000000004 343.67783000000003 311.02905000000004 C 346.35138 311.02905000000004 348.33565000000004 309.08655000000005 348.33565000000004 306.45478 z" stroke-linecap="round" />
</g>
    <g transform="matrix(1 0 0 1 87.22 68.04)"  >
<path style="stroke: none; stroke-width: 1; stroke-dasharray: none; stroke-linecap: butt; stroke-dashoffset: 0; stroke-linejoin: miter; stroke-miterlimit: 10; fill: rgb(16,24,32); fill-rule: nonzero; opacity: 1;" vector-effect="non-scaling-stroke"  transform=" translate(-362.22, -303.04)" d="M 370.37847 303.05018 C 370.37847 298.64301 366.70234999999997 295.05043 362.23251 295.05043 C 357.80445 295.05043 354.06566 298.66389 354.06566 302.94574 C 354.06566 307.43646 357.70000999999996 311.02904 362.23251 311.02904 C 366.70234 311.02904 370.37847 307.41558000000003 370.37847 303.05018 z M 368.81194 303.07107 C 368.81194 306.64276 365.82509 309.60872 362.23251 309.60872 C 358.59816 309.60872 355.63219 306.64276 355.63219 302.98752 C 355.63219 299.4576 358.66082 296.47075 362.23251 296.47075 C 365.82509 296.47075 368.81194 299.4576 368.81194 303.07107 z" stroke-linecap="round" />
</g>
    <g transform="matrix(1 0 0 1 107.47 68.04)"  >
<path style="stroke: none; stroke-width: 1; stroke-dasharray: none; stroke-linecap: butt; stroke-dashoffset: 0; stroke-linejoin: miter; stroke-miterlimit: 10; fill: rgb(16,24,32); fill-rule: nonzero; opacity: 1;" vector-effect="non-scaling-stroke"  transform=" translate(-382.47, -303.04)" d="M 387.70081 300.29309 C 387.70081 297.07648 385.90452 295.32197 381.05872 295.32197 L 377.23639 295.32197 L 377.23639 310.75752 L 378.78202999999996 310.75752 L 378.78202999999996 296.72141 L 380.95428999999996 296.72141 C 384.54686999999996 296.72141 386.13427999999993 297.66132999999996 386.13427999999993 300.23044 C 386.13427999999993 303.00842 384.6721799999999 303.76036 380.3485599999999 303.76036 L 385.5494399999999 310.75753 L 387.4710499999999 310.75753 L 383.1474299999999 304.99269999999996 C 386.11338999999987 304.67938999999996 387.7008099999999 303.02932 387.7008099999999 300.29310999999996 z" stroke-linecap="round" />
</g>
    <g transform="matrix(1 0 0 1 120.04 68.04)"  >
<path style="stroke: none; stroke-width: 1; stroke-dasharray: none; stroke-linecap: butt; stroke-dashoffset: 0; stroke-linejoin: miter; stroke-miterlimit: 10; fill: rgb(16,24,32); fill-rule: nonzero; opacity: 1;" vector-effect="non-scaling-stroke"  transform=" translate(-395.04, -303.04)" d="M 395.81196 310.75751 L 395.81196 295.32196000000005 L 394.26632 295.32196000000005 L 394.26632 310.75751 z" stroke-linecap="round" />
</g>
    <g transform="matrix(1 0 0 1 132.56 68.04)"  >
<path style="stroke: none; stroke-width: 1; stroke-dasharray: none; stroke-linecap: butt; stroke-dashoffset: 0; stroke-linejoin: miter; stroke-miterlimit: 10; fill: rgb(16,24,32); fill-rule: nonzero; opacity: 1;" vector-effect="non-scaling-stroke"  transform=" translate(-407.56, -303.04)" d="M 411.77665 310.75751 L 411.77665 309.35808000000003 L 404.88392 309.35808000000003 L 404.88392 303.65591 L 411.5469 303.65591 L 411.5469 302.25648 L 404.88392 302.25648 L 404.88392 296.72141 L 411.77665 296.72141 L 411.77665 295.32198 L 403.33827 295.32198 L 403.33827 310.75753 z" stroke-linecap="round" />
</g>
    <g transform="matrix(1 0 0 1 147.5 68.04)"  >
<path style="stroke: none; stroke-width: 1; stroke-dasharray: none; stroke-linecap: butt; stroke-dashoffset: 0; stroke-linejoin: miter; stroke-miterlimit: 10; fill: rgb(16,24,32); fill-rule: nonzero; opacity: 1;" vector-effect="non-scaling-stroke"  transform=" translate(-422.5, -303.04)" d="M 427.24004 306.45478 C 427.24004 305.09712 426.67609000000004 303.88567 425.69440000000003 303.15462 C 425.06779 302.6951 424.42029 302.40269 422.83287 301.92228 C 421.43344 301.50454 420.95303 301.31655 420.55618000000004 300.96147 C 420.11755000000005 300.5855 419.82513000000006 299.87534 419.82513000000006 299.16518 C 419.82513000000006 297.61954000000003 420.95303000000007 296.47075 422.49868000000004 296.47075 C 424.06521000000004 296.47075 425.25577000000004 297.55688000000004 425.25577000000004 299.22784 L 426.86407 299.22784 C 426.86407 296.72139000000004 425.06778 295.05043 422.54045 295.05043 C 420.05489 295.05043 418.2586 296.80494 418.2586 299.20696 C 418.2586 300.2722 418.65545 301.29567 419.34473 301.94317 C 419.95046 302.52801 420.43086000000005 302.75777 422.22715000000005 303.30083 C 424.8798100000001 304.11543 425.67352000000005 304.84647 425.67352000000005 306.53833000000003 C 425.67352000000005 308.31373 424.37852000000004 309.60873000000004 422.62401000000006 309.60873000000004 C 420.89038000000005 309.60873000000004 419.63716000000005 308.50172000000003 419.40740000000005 306.43389 L 417.75732000000005 306.43389 C 417.90353000000005 309.21187000000003 419.80425 311.02905000000004 422.58223000000004 311.02905000000004 C 425.25578 311.02905000000004 427.24005000000005 309.08655000000005 427.24005000000005 306.45478 z" stroke-linecap="round" />
</g>
    <g transform="matrix(1 0 0 1 -125.39 -26.34)"  >
<path style="stroke: none; stroke-width: 1; stroke-dasharray: none; stroke-linecap: butt; stroke-dashoffset: 0; stroke-linejoin: miter; stroke-miterlimit: 10; fill: rgb(16,24,32); fill-rule: nonzero; opacity: 1;" vector-effect="non-scaling-stroke"  transform=" translate(-149.61, -208.66)" d="M 156.97824 219.98468 L 156.97824 219.98468 C 161.64712 220.93968 165.68817 222.80546 169.1014 225.58203 C 172.51463 228.3586 174.43347 232.02826 174.85791 236.59103 C 175.14087 241.40139 173.07171 245.4955 168.65043 248.87336 C 164.22915 252.25122 157.93324 253.94015 149.7627 253.94015 C 140.92013 253.94015 132.87339 251.30506 125.62249 246.03489 C 118.37158 240.76471999999998 113.26058 234.69871999999998 110.28948 227.83687999999998 L 110.28948 247.04294 C 115.13521 250.08478 121.13931 252.72870999999998 128.30178999999998 254.97472 C 135.46426999999997 257.22073 143.16615 258.34373999999997 151.40741999999997 258.34373999999997 C 160.14387999999997 258.34373999999997 167.44783999999999 256.64597 173.31929999999997 253.25041999999996 C 179.19076999999996 249.85486999999995 183.43519999999998 245.59275999999997 186.05259999999998 240.46406999999996 C 188.67 235.33537999999996 189.50119999999998 230.03867999999997 188.54619999999997 224.57396999999997 C 187.59119999999996 219.10925999999998 184.68199999999996 214.19278999999997 179.81858999999997 209.82456999999997 C 174.95517999999998 205.45633999999995 167.97838999999996 202.35259999999997 158.88822999999996 200.51334999999997 L 142.01660999999996 197.27696999999998 C 136.28662999999995 195.96827 131.97144999999995 193.78415999999999 129.07108999999997 190.72463 C 126.17072999999996 187.6651 124.59674999999997 184.33145 124.34915999999997 180.72368999999998 C 124.10156999999997 175.91332999999997 126.18840999999998 171.81921999999997 130.60969999999998 168.44135999999997 C 135.03097999999997 165.06349999999998 141.30920999999998 163.37456999999998 149.44436999999996 163.37456999999998 C 152.02639999999997 163.37456999999998 154.93559999999997 163.86091 158.17197999999996 164.83359 C 161.40835999999996 165.80626999999998 164.05228999999997 166.96464999999998 166.10375999999997 168.30872 L 166.10375999999997 191.6531 L 188.91758999999996 170.27177 C 183.64741999999995 167.05308 177.20118999999997 164.36493000000002 169.57888999999997 162.20735 C 161.95659999999998 160.04976 154.71452999999997 158.97097 147.85269999999997 158.97097 C 139.08086999999998 158.97097 131.75922999999997 160.66873999999999 125.88775999999997 164.06429 C 120.01628999999997 167.45983999999999 115.78069999999997 171.72195 113.18098999999997 176.85064 C 110.58126999999996 181.97933 109.75891999999996 187.27603 110.71390999999997 192.74074 C 111.66890999999997 198.20544999999998 114.57810999999997 203.12192 119.44151999999997 207.49014 C 124.30492999999997 211.85837 131.26402999999996 214.96211 140.31881999999996 216.80136 z" stroke-linecap="round" />
</g>
    <g transform="matrix(1 0 0 1 -9.39 -26.34)"  >
<path style="stroke: none; stroke-width: 1; stroke-dasharray: none; stroke-linecap: butt; stroke-dashoffset: 0; stroke-linejoin: miter; stroke-miterlimit: 10; fill: rgb(16,24,32); fill-rule: nonzero; opacity: 1;" vector-effect="non-scaling-stroke"  transform=" translate(-265.61, -208.66)" d="M 303.41117 158.97096 L 303.41117 158.97096 L 248.92326000000003 253.94013999999999 L 282.77261000000004 253.94013999999999 C 288.96241000000003 253.94013999999999 293.62244000000004 252.55185999999998 296.75271000000004 249.77528999999998 C 299.88298000000003 246.99872 302.10246000000006 243.71812999999997 303.41116000000005 239.93350999999998 L 300.38700000000006 258.34373999999997 L 227.80720000000005 258.34373999999997 L 282.24205000000006 163.37455999999997 L 248.44575000000006 163.37455999999997 C 242.25595000000007 163.37455999999997 237.59592000000006 164.76283999999998 234.46565000000007 167.53940999999998 C 231.33538000000007 170.31597999999997 229.11590000000007 173.59656999999999 227.80720000000008 177.38118999999998 L 230.7783000000001 158.97096 z" stroke-linecap="round" />
</g>
    <g transform="matrix(1 0 0 1 115 -26.34)"  >
<path style="stroke: none; stroke-width: 1; stroke-dasharray: none; stroke-linecap: butt; stroke-dashoffset: 0; stroke-linejoin: miter; stroke-miterlimit: 10; fill: rgb(16,24,32); fill-rule: nonzero; opacity: 1;" vector-effect="non-scaling-stroke"  transform=" translate(-390, -208.66)" d="M 407.34672 249.69571 L 407.34672 249.69571 L 407.34672 249.69571 L 401.13924000000003 233.67298 L 363.9474 233.67298 L 357.79297 249.69571 C 356.87334000000004 252.31311 357.02367000000004 254.40879999999999 358.24394 255.98278 C 359.46421000000004 257.55676 361.2062 258.34375 363.4699 258.34375 L 340.28469 258.34375 C 342.58376 258.34375 344.87398 257.55676 347.15537 255.98278 C 349.43675 254.40879999999999 351.12568 252.31311 352.22216000000003 249.69571 L 387.29179000000005 158.97096 L 387.29179000000005 158.97096 L 392.7565000000001 158.97096 L 427.8261300000001 249.69571 C 428.8872400000001 252.31311 430.5673300000001 254.40879999999999 432.8663900000001 255.98278 C 435.16546000000005 257.55676 437.44684000000007 258.34375 439.7105400000001 258.34375 L 402.0942500000001 258.34375 C 404.3579500000001 258.34375 406.0291900000001 257.55676 407.1079900000001 255.98278 C 408.1867800000001 254.40879999999999 408.2663700000001 252.31311 407.34674000000007 249.69571 z M 365.69822 229.16326 L 365.69822 229.16326 L 399.38841 229.16326 L 382.51679 185.49866 z" stroke-linecap="round" />
</g>
</g>
</g>
</svg>
