<svg xmlns:mydata="http://www.w3.org/2000/svg" mydata:contrastcolor="B3A369" mydata:template="Contrast" mydata:presentation="2.5" mydata:layouttype="undefined" mydata:specialfontid="undefined" mydata:id1="706" mydata:id2="146" mydata:companyname="SZA" mydata:companytagline="S. Zipper Accessories" version="1.1" xmlns="http://www.w3.org/2000/svg" xmlns:xlink="http://www.w3.org/1999/xlink" viewBox="0 0 550 470" class="svg-business-card" width="550"  height="470" ><g fill="#101820" fill-rule="nonzero" stroke="none" stroke-width="1" stroke-linecap="butt" stroke-linejoin="miter" stroke-miterlimit="10" stroke-dasharray="" stroke-dashoffset="0" font-family="none" font-weight="none" font-size="none" text-anchor="none" style="mix-blend-mode: normal"><g data-paper-data="{&quot;isGlobalGroup&quot;:true,&quot;bounds&quot;:{&quot;x&quot;:110.28947913591188,&quot;y&quot;:158.970955265998,&quot;width&quot;:329.4210417281762,&quot;height&quot;:152.05808946800397}}" fill="#101820"><g data-paper-data="{&quot;isSecondaryText&quot;:true}" fill="#101820"><path d="M121.66913,306.45478c0,-1.35766 -0.56395,-2.56911 -1.54564,-3.30016c-0.62661,-0.45952 -1.27411,-0.75193 -2.86153,-1.23234c-1.39943,-0.41774 -1.87984,-0.60573 -2.27669,-0.96081c-0.43863,-0.37597 -0.73105,-1.08613 -0.73105,-1.79629c0,-1.54564 1.1279,-2.69443 2.67355,-2.69443c1.56653,0 2.75709,1.08613 2.75709,2.75709h1.6083c0,-2.50645 -1.79629,-4.17741 -4.32362,-4.17741c-2.48556,0 -4.28185,1.75451 -4.28185,4.15653c0,1.06524 0.39685,2.08871 1.08613,2.73621c0.60573,0.58484 1.08613,0.8146 2.88242,1.35766c2.65266,0.8146 3.44637,1.54564 3.44637,3.2375c0,1.7754 -1.295,3.0704 -3.04951,3.0704c-1.73363,0 -2.98685,-1.10701 -3.21661,-3.17484h-1.65008c0.14621,2.77798 2.04693,4.59516 4.82491,4.59516c2.67355,0 4.65782,-1.9425 4.65782,-4.57427z" data-paper-data="{&quot;glyphName&quot;:&quot;S&quot;,&quot;glyphIndex&quot;:0,&quot;firstGlyphOfWord&quot;:true,&quot;word&quot;:1}" fill="#101820"></path><path d="M130.13535,310.75751v-2.63177h-1.54564v2.63177z" data-paper-data="{&quot;glyphName&quot;:&quot;.&quot;,&quot;glyphIndex&quot;:1,&quot;lastGlyphOfWord&quot;:true,&quot;word&quot;:1}" fill="#101820"></path><path d="M156.65497,310.75751v-1.39943h-7.79088l7.56112,-12.63668v-1.39943h-9.08588v1.39943h7.35225l-7.58201,12.63668v1.39943z" data-paper-data="{&quot;glyphName&quot;:&quot;Z&quot;,&quot;glyphIndex&quot;:2,&quot;firstGlyphOfWord&quot;:true,&quot;word&quot;:2}" fill="#101820"></path><path d="M164.26483,310.75751v-15.43555h-1.54564v15.43555z" data-paper-data="{&quot;glyphName&quot;:&quot;I&quot;,&quot;glyphIndex&quot;:3,&quot;word&quot;:2}" fill="#101820"></path><path d="M182.00492,300.00067c0,-3.2375 -1.71274,-4.6787 -5.95282,-4.6787h-4.26096v15.43555h1.54564v-6.24523h2.96596c4.1983,0 5.70217,-1.58742 5.70217,-4.51161zM180.43839,300.00067c0,2.23492 -1.16968,3.11217 -4.24008,3.11217h-2.86153v-6.39144h2.19314c2.94508,0 4.90846,0.14621 4.90846,3.27927z" data-paper-data="{&quot;glyphName&quot;:&quot;P&quot;,&quot;glyphIndex&quot;:4,&quot;word&quot;:2}" fill="#101820"></path><path d="M198.72154,300.00067c0,-3.2375 -1.71274,-4.6787 -5.95282,-4.6787h-4.26096v15.43555h1.54564v-6.24523h2.96596c4.1983,0 5.70217,-1.58742 5.70217,-4.51161zM197.15501,300.00067c0,2.23492 -1.16968,3.11217 -4.24008,3.11217h-2.86153v-6.39144h2.19314c2.94508,0 4.90846,0.14621 4.90846,3.27927z" data-paper-data="{&quot;glyphName&quot;:&quot;P&quot;,&quot;glyphIndex&quot;:5,&quot;word&quot;:2}" fill="#101820"></path><path d="M213.66276,310.75751v-1.39943h-6.89273v-5.70217h6.66298v-1.39943h-6.66298v-5.53507h6.89273v-1.39943h-8.43838v15.43555z" data-paper-data="{&quot;glyphName&quot;:&quot;E&quot;,&quot;glyphIndex&quot;:6,&quot;word&quot;:2}" fill="#101820"></path><path d="M231.23575,300.29309c0,-3.21661 -1.79629,-4.97112 -6.64209,-4.97112h-3.82233v15.43555h1.54564v-14.03611h2.17226c3.59258,0 5.17999,0.93992 5.17999,3.50903c0,2.77798 -1.4621,3.52992 -5.78572,3.52992l5.20088,6.99717h1.92161l-4.32362,-5.76483c2.96596,-0.31331 4.55338,-1.96338 4.55338,-4.69959z" data-paper-data="{&quot;glyphName&quot;:&quot;R&quot;,&quot;glyphIndex&quot;:7,&quot;lastGlyphOfWord&quot;:true,&quot;word&quot;:2}" fill="#101820"></path><path d="M261.5777,310.75751l-6.64209,-15.43555h-1.73363l-6.6212,15.43555h1.62919l2.2558,-5.20088h7.18515l2.23492,5.20088zM257.04521,304.1572h-5.99459l3.02863,-7.08072z" data-paper-data="{&quot;glyphName&quot;:&quot;A&quot;,&quot;glyphIndex&quot;:8,&quot;firstGlyphOfWord&quot;:true,&quot;word&quot;:3}" fill="#101820"></path><path d="M281.51093,306.70542h-1.71274c-1.62919,2.04693 -3.11217,2.9033 -5.36798,2.9033c-3.57169,0 -6.51677,-2.96596 -6.51677,-6.57943c0,-3.7179 2.81975,-6.55854 6.49588,-6.55854c2.17226,0 3.98943,0.79371 5.30532,2.86153h1.73363c-1.19056,-2.65266 -3.90588,-4.28185 -7.1016,-4.28185c-4.59516,0 -7.99975,3.42548 -7.99975,8.04152c0,4.51161 3.48814,7.93709 8.10418,7.93709c3.13306,0 5.51419,-1.4621 7.05983,-4.32362z" data-paper-data="{&quot;glyphName&quot;:&quot;C&quot;,&quot;glyphIndex&quot;:9,&quot;word&quot;:3}" fill="#101820"></path><path d="M302.8436,306.70542h-1.71274c-1.62919,2.04693 -3.11217,2.9033 -5.36798,2.9033c-3.57169,0 -6.51677,-2.96596 -6.51677,-6.57943c0,-3.7179 2.81975,-6.55854 6.49588,-6.55854c2.17226,0 3.98943,0.79371 5.30532,2.86153h1.73363c-1.19056,-2.65266 -3.90588,-4.28185 -7.1016,-4.28185c-4.59516,0 -7.99975,3.42548 -7.99975,8.04152c0,4.51161 3.48814,7.93709 8.10418,7.93709c3.13306,0 5.51419,-1.4621 7.05983,-4.32362z" data-paper-data="{&quot;glyphName&quot;:&quot;C&quot;,&quot;glyphIndex&quot;:10,&quot;word&quot;:3}" fill="#101820"></path><path d="M318.11901,310.75751v-1.39943h-6.89273v-5.70217h6.66298v-1.39943h-6.66298v-5.53507h6.89273v-1.39943h-8.43838v15.43555z" data-paper-data="{&quot;glyphName&quot;:&quot;E&quot;,&quot;glyphIndex&quot;:11,&quot;word&quot;:3}" fill="#101820"></path><path d="M333.58241,306.45478c0,-1.35766 -0.56395,-2.56911 -1.54564,-3.30016c-0.62661,-0.45952 -1.27411,-0.75193 -2.86153,-1.23234c-1.39943,-0.41774 -1.87984,-0.60573 -2.27669,-0.96081c-0.43863,-0.37597 -0.73105,-1.08613 -0.73105,-1.79629c0,-1.54564 1.1279,-2.69443 2.67355,-2.69443c1.56653,0 2.75709,1.08613 2.75709,2.75709h1.6083c0,-2.50645 -1.79629,-4.17741 -4.32362,-4.17741c-2.48556,0 -4.28185,1.75451 -4.28185,4.15653c0,1.06524 0.39685,2.08871 1.08613,2.73621c0.60573,0.58484 1.08613,0.8146 2.88242,1.35766c2.65266,0.8146 3.44637,1.54564 3.44637,3.2375c0,1.7754 -1.295,3.0704 -3.04951,3.0704c-1.73363,0 -2.98685,-1.10701 -3.21661,-3.17484h-1.65008c0.14621,2.77798 2.04693,4.59516 4.82491,4.59516c2.67355,0 4.65782,-1.9425 4.65782,-4.57427z" data-paper-data="{&quot;glyphName&quot;:&quot;S&quot;,&quot;glyphIndex&quot;:12,&quot;word&quot;:3}" fill="#101820"></path><path d="M348.33564,306.45478c0,-1.35766 -0.56395,-2.56911 -1.54564,-3.30016c-0.62661,-0.45952 -1.27411,-0.75193 -2.86153,-1.23234c-1.39943,-0.41774 -1.87984,-0.60573 -2.27669,-0.96081c-0.43863,-0.37597 -0.73105,-1.08613 -0.73105,-1.79629c0,-1.54564 1.1279,-2.69443 2.67355,-2.69443c1.56653,0 2.75709,1.08613 2.75709,2.75709h1.6083c0,-2.50645 -1.79629,-4.17741 -4.32362,-4.17741c-2.48556,0 -4.28185,1.75451 -4.28185,4.15653c0,1.06524 0.39685,2.08871 1.08613,2.73621c0.60573,0.58484 1.08613,0.8146 2.88242,1.35766c2.65266,0.8146 3.44637,1.54564 3.44637,3.2375c0,1.7754 -1.295,3.0704 -3.04951,3.0704c-1.73363,0 -2.98685,-1.10701 -3.21661,-3.17484h-1.65008c0.14621,2.77798 2.04693,4.59516 4.82491,4.59516c2.67355,0 4.65782,-1.9425 4.65782,-4.57427z" data-paper-data="{&quot;glyphName&quot;:&quot;S&quot;,&quot;glyphIndex&quot;:13,&quot;word&quot;:3}" fill="#101820"></path><path d="M370.37847,303.05018c0,-4.40717 -3.67612,-7.99975 -8.14596,-7.99975c-4.42806,0 -8.16685,3.61346 -8.16685,7.89531c0,4.49072 3.63435,8.0833 8.16685,8.0833c4.46983,0 8.14596,-3.61346 8.14596,-7.97886zM368.81194,303.07107c0,3.57169 -2.98685,6.53765 -6.57943,6.53765c-3.63435,0 -6.60032,-2.96596 -6.60032,-6.6212c0,-3.52992 3.02863,-6.51677 6.60032,-6.51677c3.59258,0 6.57943,2.98685 6.57943,6.60032z" data-paper-data="{&quot;glyphName&quot;:&quot;O&quot;,&quot;glyphIndex&quot;:14,&quot;word&quot;:3}" fill="#101820"></path><path d="M387.70081,300.29309c0,-3.21661 -1.79629,-4.97112 -6.64209,-4.97112h-3.82233v15.43555h1.54564v-14.03611h2.17226c3.59258,0 5.17999,0.93992 5.17999,3.50903c0,2.77798 -1.4621,3.52992 -5.78572,3.52992l5.20088,6.99717h1.92161l-4.32362,-5.76483c2.96596,-0.31331 4.55338,-1.96338 4.55338,-4.69959z" data-paper-data="{&quot;glyphName&quot;:&quot;R&quot;,&quot;glyphIndex&quot;:15,&quot;word&quot;:3}" fill="#101820"></path><path d="M395.81196,310.75751v-15.43555h-1.54564v15.43555z" data-paper-data="{&quot;glyphName&quot;:&quot;I&quot;,&quot;glyphIndex&quot;:16,&quot;word&quot;:3}" fill="#101820"></path><path d="M411.77665,310.75751v-1.39943h-6.89273v-5.70217h6.66298v-1.39943h-6.66298v-5.53507h6.89273v-1.39943h-8.43838v15.43555z" data-paper-data="{&quot;glyphName&quot;:&quot;E&quot;,&quot;glyphIndex&quot;:17,&quot;word&quot;:3}" fill="#101820"></path><path d="M427.24004,306.45478c0,-1.35766 -0.56395,-2.56911 -1.54564,-3.30016c-0.62661,-0.45952 -1.27411,-0.75193 -2.86153,-1.23234c-1.39943,-0.41774 -1.87984,-0.60573 -2.27669,-0.96081c-0.43863,-0.37597 -0.73105,-1.08613 -0.73105,-1.79629c0,-1.54564 1.1279,-2.69443 2.67355,-2.69443c1.56653,0 2.75709,1.08613 2.75709,2.75709h1.6083c0,-2.50645 -1.79629,-4.17741 -4.32362,-4.17741c-2.48556,0 -4.28185,1.75451 -4.28185,4.15653c0,1.06524 0.39685,2.08871 1.08613,2.73621c0.60573,0.58484 1.08613,0.8146 2.88242,1.35766c2.65266,0.8146 3.44637,1.54564 3.44637,3.2375c0,1.7754 -1.295,3.0704 -3.04951,3.0704c-1.73363,0 -2.98685,-1.10701 -3.21661,-3.17484h-1.65008c0.14621,2.77798 2.04693,4.59516 4.82491,4.59516c2.67355,0 4.65782,-1.9425 4.65782,-4.57427z" data-paper-data="{&quot;glyphName&quot;:&quot;S&quot;,&quot;glyphIndex&quot;:18,&quot;lastGlyphOfWord&quot;:true,&quot;word&quot;:3}" fill="#101820"></path></g><g data-paper-data="{&quot;isPrimaryText&quot;:true}" fill="#101820"><path d="M156.97824,219.98468v0c4.66888,0.955 8.70993,2.82078 12.12316,5.59735c3.41323,2.77657 5.33207,6.44623 5.75651,11.009c0.28296,4.81036 -1.7862,8.90447 -6.20748,12.28233c-4.42128,3.37786 -10.71719,5.06679 -18.88773,5.06679c-8.84257,0 -16.88931,-2.63509 -24.14021,-7.90526c-7.25091,-5.27017 -12.36191,-11.33617 -15.33301,-18.19801v19.20606c4.84573,3.04184 10.84983,5.68577 18.01231,7.93178c7.16248,2.24601 14.86436,3.36902 23.10563,3.36902c8.73646,0 16.04042,-1.69777 21.91188,-5.09332c5.87147,-3.39555 10.1159,-7.65766 12.7333,-12.78635c2.6174,-5.12869 3.4486,-10.42539 2.4936,-15.8901c-0.955,-5.46471 -3.8642,-10.38118 -8.72761,-14.7494c-4.86341,-4.36823 -11.8402,-7.47197 -20.93036,-9.31122l-16.87162,-3.23638c-5.72998,-1.3087 -10.04516,-3.49281 -12.94552,-6.55234c-2.90036,-3.05953 -4.47434,-6.39318 -4.72193,-10.00094c-0.24759,-4.81036 1.83925,-8.90447 6.26054,-12.28233c4.42128,-3.37786 10.69951,-5.06679 18.83467,-5.06679c2.58203,0 5.49123,0.48634 8.72761,1.45902c3.23638,0.97268 5.88031,2.13106 7.93178,3.47513v23.34438l22.81383,-21.38133c-5.27017,-3.21869 -11.7164,-5.90684 -19.3387,-8.06442c-7.62229,-2.15759 -14.86436,-3.23638 -21.72619,-3.23638c-8.77183,0 -16.09347,1.69777 -21.96494,5.09332c-5.87147,3.39555 -10.10706,7.65766 -12.70677,12.78635c-2.59972,5.12869 -3.42207,10.42539 -2.46708,15.8901c0.955,5.46471 3.8642,10.38118 8.72761,14.7494c4.86341,4.36823 11.82251,7.47197 20.8773,9.31122z" data-paper-data="{&quot;glyphName&quot;:&quot;S&quot;,&quot;glyphIndex&quot;:0,&quot;firstGlyphOfWord&quot;:true,&quot;word&quot;:1}" fill="#101820"></path><path d="M303.41117,158.97096v0l-54.48791,94.96918h33.84935c6.1898,0 10.84983,-1.38828 13.9801,-4.16485c3.13027,-2.77657 5.34975,-6.05716 6.65845,-9.84178l-3.02416,18.41023h-72.5798l54.43485,-94.96918h-33.7963c-6.1898,0 -10.84983,1.38828 -13.9801,4.16485c-3.13027,2.77657 -5.34975,6.05716 -6.65845,9.84178l2.9711,-18.41023z" data-paper-data="{&quot;glyphName&quot;:&quot;Z&quot;,&quot;glyphIndex&quot;:1,&quot;word&quot;:1}" fill="#101820"></path><path d="M407.34672,249.69571v0v0l-6.20748,-16.02273h-37.19184l-6.15443,16.02273c-0.91963,2.6174 -0.7693,4.71309 0.45097,6.28707c1.22027,1.57398 2.96226,2.36097 5.22596,2.36097h-23.18521c2.29907,0 4.58929,-0.78699 6.87068,-2.36097c2.28138,-1.57398 3.97031,-3.66967 5.06679,-6.28707l35.06963,-90.72475v0h5.46471l35.06963,90.72475c1.06111,2.6174 2.7412,4.71309 5.04026,6.28707c2.29907,1.57398 4.58045,2.36097 6.84415,2.36097h-37.61629c2.2637,0 3.93494,-0.78699 5.01374,-2.36097c1.07879,-1.57398 1.15838,-3.66967 0.23875,-6.28707zM365.69822,229.16326v0h33.69019l-16.87162,-43.6646z" data-paper-data="{&quot;glyphName&quot;:&quot;A&quot;,&quot;glyphIndex&quot;:2,&quot;lastGlyphOfWord&quot;:true,&quot;word&quot;:1}" fill="#101820"></path></g></g></g></svg>